# xmcd CD database file
# Generated: Fri Dec 16 10:31:07 2005 by KSCD
# 
# Track frame offsets:
#       150
#       21722
#       39524
#       57117
#       68038
#       84026
#       101490
#       119588
#       131495
#       144129
#
# Disc length: 2121 seconds
#
# Revision: 9
# Processed by: cddbd v1.5.1PL2 Copyright (c) Steve Scherf et al.
# Submitted via: Kscd 1.3.3
#
DISCID=8008470a
DTITLE=Michael Murphey - Blue Sky - Night Thunder
DYEAR=1900
DGENRE=
TTITLE0=Wildfire
TTITLE1=Carolina in the Pines
TTITLE2=Desert Rat
TTITLE3=Wild Bird
TTITLE4=Blue Sky Riding Song
TTITLE5=Medicine Man
TTITLE6=Secret Mountain Hideout
TTITLE7=Without My Lady There
TTITLE8=Night Thunder
TTITLE9=Rings of Life
EXTD=
EXTT0=
EXTT1=
EXTT2=
EXTT3=
EXTT4=
EXTT5=
EXTT6=
EXTT7=
EXTT8=
EXTT9=
PLAYORDER=
